# xmcd
#
# Track frame offsets: 
#        150
#        13386
#        24376
#        33992
#        46406
#        59233
#        75725
#        87990
#        101070
#        115195
#        127073
#        140385
#        153063
#        166476
#        182511
#
# Disc length: 2608 seconds
#
# Revision: 6
# Processed by: cddbd v1.5.2PL0 Copyright (c) Steve Scherf et al.
# Submitted via: ExactAudioCopy v0.99pb5
#
DISCID=c70a2e0f
DTITLE=Various Artist - Classic Country - TL 626-15 - 1970 - 1975 - CD 2
DYEAR=2001
DGENRE=Country
TTITLE0=Ray Stevens - Misty
TTITLE1=Loretta Lynn And Conway Twitty - Lead me on
TTITLE2=Freddy Hart - My hang up is you
TTITLE3=Ronnie Milsap - Please don't tell me how the story ends
TTITLE4=Lynn Anderson - Top of the world
TTITLE5=Ray Price - I won't mention it again
TTITLE6=George Jones - The door
TTITLE7=Statler Brothers - Do you remember these
TTITLE8=Merle Haggard - Always wanting you
TTITLE9=Bobby Goldsboro - Watchin' Scotty Grow
TTITLE10=Sonny James - Endlessly
TTITLE11=Gary Stewart - She's actin' single (I'm drinkin' doubles)
TTITLE12=George Jones and Tammy Wynette - We're gonna hold on
TTITLE13=Narvel Felts - Reconsider me
TTITLE14=Waylon Jennings - Are you sure Hank done it this way
EXTD=YEAR: 2001
EXTT0=
EXTT1=
EXTT2=
EXTT3=
EXTT4=
EXTT5=
EXTT6=
EXTT7=
EXTT8=
EXTT9=
EXTT10=
EXTT11=
EXTT12=
EXTT13=
EXTT14=
PLAYORDER=
